<svg xmlns="http://www.w3.org/2000/svg"  viewBox="0 0 100 100" width="200px" height="200px"><circle cx="52" cy="52" r="44" opacity=".35"/><circle cx="50" cy="50" r="44" fill="#f2f2f2"/><path fill="#2785bd" d="M87.5,50c0,20.709-16.791,37.5-37.5,37.5S12.5,70.709,12.5,50S29.291,12.5,50,12.5 S87.5,29.291,87.5,50z"/><path fill="#f2f2f2" d="M57.526,24.872c-8.418,0-15.256,6.838-15.256,15.256c0,0.323,0.036,0.628,0.054,0.933L36.886,50 c-3.715,0-7.036,1.615-9.333,4.164l-14-4.164c0,3.967,0.646,7.79,1.849,11.361l9.046,2.89c0.826,6.138,6.067,10.877,12.438,10.877 c6.946,0,12.564-5.618,12.564-12.564c0-0.664-0.072-1.31-0.162-1.938l9.082-5.277c8.023-0.449,14.413-7.09,14.413-15.22 C72.782,31.711,65.944,24.872,57.526,24.872z M36.886,71.538c-3.913,0-7.215-2.531-8.436-6.013l6.731,2.136l0.018-0.018 c0,0.018,0.018,0.018,0.036,0.018c0.251,0.072,0.485,0.144,0.736,0.197c0.305,0.054,0.61,0.09,0.915,0.09 c2.979,0,5.384-2.405,5.384-5.384c0-2.333-1.526-4.326-3.626-5.061c-0.018-0.018-0.054-0.054-0.054-0.054l-7.018-2.082 c1.49-1.095,3.32-1.777,5.313-1.777c4.954,0,8.974,4.02,8.974,8.974S41.839,71.538,36.886,71.538z M57.526,50 c-5.456,0-9.872-4.415-9.872-9.872s4.415-9.872,9.872-9.872s9.872,4.415,9.872,9.872S62.983,50,57.526,50z"/><path fill="#40396e" d="M50,89c-21.505,0-39-17.495-39-39s17.495-39,39-39s39,17.495,39,39S71.505,89,50,89z M50,14 c-19.851,0-36,16.149-36,36s16.149,36,36,36s36-16.149,36-36S69.851,14,50,14z"/></svg>